<svg xmlns="http://www.w3.org/2000/svg" version="1.1" xmlns:xlink="http://www.w3.org/1999/xlink" xmlns:svgjs="http://svgjs.dev/svgjs" width="1920" height="1080" preserveAspectRatio="none" viewBox="0 0 1920 1080">
    <g mask="url(&quot;#SvgjsMask1094&quot;)" fill="none">
        <path d="M1303.9552314228424 899.8344357439076L1447.3961407441589 592.9882357314918 1152.0246018718483 613.6426257836813z" fill="rgba(17, 0, 142, 0.39)" class="triangle-float2"></path>
        <path d="M162.59338563068275 986.2047692400928L59.01983292404171 848.7580224639162-95.36351088690273 1072.8417249119661z" fill="rgba(17, 0, 142, 0.39)" class="triangle-float1"></path>
        <path d="M1813.6072357532764-162.13623815705333L1542.3818811979013-119.17836217397631 1856.5651117363534 109.08911639832175z" fill="rgba(17, 0, 142, 0.39)" class="triangle-float3"></path>
        <path d="M1020.0736511519426 323.5536132310215L1232.0402577060263 308.93444719825544 1130.883184653311 153.1662145623469z" fill="rgba(17, 0, 142, 0.39)" class="triangle-float3"></path>
        <path d="M1376.0531607963599 989.6600634846142L1510.4151050905048 840.7216984535239 1339.5632648947044 801.2774431570456z" fill="rgba(17, 0, 142, 0.39)" class="triangle-float1"></path>
        <path d="M559.9307461446974 299.4182472800369L451.8509654344598 145.0643238895863 405.5768227542468 407.4980279902745z" fill="rgba(17, 0, 142, 0.39)" class="triangle-float3"></path>
        <path d="M318.93190526252374 457.75561222414547L468.1160135650894 612.2402787072675 625.2509591384896 311.22178301185795z" fill="rgba(17, 0, 142, 0.39)" class="triangle-float1"></path>
        <path d="M1740.291500194353 563.637010804289L1893.1883166921043 368.3219715417483 1679.0291193084759 334.40248692379043z" fill="rgba(17, 0, 142, 0.39)" class="triangle-float2"></path>
        <path d="M603.8653346831082 774.7755516712741L670.567233220748 992.947631160977 822.0374141728112 708.0736531336344z" fill="rgba(17, 0, 142, 0.39)" class="triangle-float1"></path>
        <path d="M157.99342669013407 184.28530077915536L69.309934998822 272.96879247046746 246.67691838144617 361.6522841617795z" fill="rgba(17, 0, 142, 0.39)" class="triangle-float1"></path>
        <path d="M1185.530516611517 321.16623168876305L1462.5165340813498 120.32714712834945 1191.4567545008217-6.070103907856662z" fill="rgba(17, 0, 142, 0.39)" class="triangle-float2"></path>
        <path d="M-75.79666371000962 433.78124312263327L13.918099799650577 602.5101731875386 222.15411314217846 383.57356289059567z" fill="rgba(17, 0, 142, 0.39)" class="triangle-float1"></path>
        <path d="M1565.6478239491098-1.8451403252790328L1228.8723790580862-124.78497649642654 1277.8984950036815 184.75373731371076z" fill="rgba(17, 0, 142, 0.39)" class="triangle-float3"></path>
        <path d="M1601.7185355558067 568.6003512376408L1542.0876523563918 465.3166318360487 1416.977514853711 606.4048163359671z" fill="rgba(17, 0, 142, 0.39)" class="triangle-float3"></path>
        <path d="M1088.177076631053 674.5404011657912L1021.142610286863 923.7661227611082 1240.0467087275163 869.1872010827132z" fill="rgba(17, 0, 142, 0.39)" class="triangle-float3"></path>
        <path d="M413.74616186923373 305.68410098052357L223.562485748181 151.3760615864799 186.3862049418587 362.21322704437836z" fill="rgba(17, 0, 142, 0.39)" class="triangle-float1"></path>
        <path d="M1908.0229609858345 944.0225410886412L1986.258712464858 857.1329363889711 1816.806429675841 783.2241115202708z" fill="rgba(17, 0, 142, 0.39)" class="triangle-float3"></path>
        <path d="M620.3919320467534 252.56059288441378L870.1040616466701 239.47373471204304 607.3050738743826 2.848463284497143z" fill="rgba(17, 0, 142, 0.39)" class="triangle-float2"></path>
        <path d="M1727.4324497576479 829.8871330480642L1670.5587604044545 505.53312466195763 1446.8478296650117 686.6906644259526z" fill="rgba(17, 0, 142, 0.39)" class="triangle-float2"></path>
        <path d="M489.32699877550414 963.6746798823341L502.7621280612881 1158.4736688903402 645.9143666630637 1065.5095181591253z" fill="rgba(17, 0, 142, 0.39)" class="triangle-float3"></path>
    </g>
    <defs>
        <mask id="SvgjsMask1094">
            <rect width="1920" height="1080" fill="#ffffff"></rect>
        </mask>
        <style>
            @keyframes float1 {
                    0%{transform: translate(0, 0)}
                    50%{transform: translate(-10px, 0)}
                    100%{transform: translate(0, 0)}
                }

                .triangle-float1 {
                    animation: float1 5s infinite;
                }

                @keyframes float2 {
                    0%{transform: translate(0, 0)}
                    50%{transform: translate(-5px, -5px)}
                    100%{transform: translate(0, 0)}
                }

                .triangle-float2 {
                    animation: float2 4s infinite;
                }

                @keyframes float3 {
                    0%{transform: translate(0, 0)}
                    50%{transform: translate(0, -10px)}
                    100%{transform: translate(0, 0)}
                }

                .triangle-float3 {
                    animation: float3 6s infinite;
                }
        </style>
    </defs>
</svg>